<svg width="51" height="43" viewBox="0 0 51 43" fill="none" xmlns="http://www.w3.org/2000/svg">
<mask id="path-1-outside-1_37_86" maskUnits="userSpaceOnUse" x="0" y="7" width="48" height="16" fill="black">
<rect fill="white" y="7" width="48" height="16"/>
<path d="M11.9048 11.8296C11.7734 12.618 11.4515 13.275 10.939 13.8006C10.4266 14.3262 9.79587 14.7139 9.04689 14.9635C9.65133 15.0687 10.1506 15.3774 10.5449 15.8899C10.939 16.4024 11.1361 17.0068 11.1361 17.7032C11.1361 17.9135 11.1164 18.1171 11.077 18.3142C10.9588 19.0107 10.6697 19.6414 10.2098 20.2064C9.74988 20.7583 9.14544 21.1985 8.39646 21.527C7.66062 21.8423 6.83937 22 5.93271 22H0.45333L2.87766 8.30155H8.10081C9.34911 8.30155 10.3018 8.57092 10.9588 9.10966C11.6289 9.6484 11.964 10.3448 11.964 11.1989C11.964 11.396 11.9443 11.6063 11.9048 11.8296ZM9.57906 12.1056C9.60534 11.9216 9.61848 11.7837 9.61848 11.6917C9.61848 11.1792 9.44109 10.7784 9.08631 10.4894C8.73153 10.2003 8.23221 10.0557 7.58835 10.0557H4.80924L4.09968 14.116H6.87879C7.61463 14.116 8.21907 13.9386 8.69211 13.5838C9.17829 13.229 9.47394 12.7363 9.57906 12.1056ZM8.8695 18.0777C8.89578 17.8675 8.90892 17.7164 8.90892 17.6244C8.90892 17.0856 8.71182 16.6586 8.31762 16.3432C7.92342 16.0279 7.39782 15.8702 6.74082 15.8702H3.78432L3.01563 20.2458H6.05097C6.81309 20.2458 7.44381 20.0553 7.94313 19.6742C8.44245 19.2932 8.75124 18.761 8.8695 18.0777ZM16.6329 22.1774C15.7131 22.1774 14.905 21.9869 14.2086 21.6058C13.5122 21.2247 12.9669 20.686 12.5727 19.9896C12.1916 19.2932 12.0011 18.4982 12.0011 17.6047C12.0011 16.3827 12.2836 15.2658 12.8486 14.254C13.4268 13.2422 14.2152 12.4406 15.2138 11.8493C16.2256 11.2581 17.3491 10.9624 18.5842 10.9624C19.504 10.9624 20.3187 11.1595 21.0283 11.5537C21.7378 11.9348 22.2897 12.4735 22.6839 13.1699C23.0912 13.8532 23.2949 14.6482 23.2949 15.5548C23.2949 16.7768 22.9993 17.8937 22.408 18.9055C21.8167 19.9173 21.0151 20.7188 20.0033 21.3102C18.9916 21.8883 17.8681 22.1774 16.6329 22.1774ZM16.9089 20.2852C17.6578 20.2852 18.3411 20.075 18.9587 19.6545C19.5894 19.2209 20.0822 18.6559 20.437 17.9594C20.7917 17.2499 20.9691 16.4943 20.9691 15.6928C20.9691 14.7861 20.7129 14.0897 20.2004 13.6035C19.688 13.1042 19.0441 12.8546 18.2689 12.8546C17.5067 12.8546 16.8235 13.0714 16.219 13.505C15.6277 13.9255 15.1612 14.4971 14.8196 15.2198C14.4911 15.9293 14.3269 16.6914 14.3269 17.5061C14.3269 18.3865 14.5634 19.0698 15.0364 19.556C15.5226 20.0421 16.1467 20.2852 16.9089 20.2852ZM28.2164 22.1774C27.2966 22.1774 26.4885 21.9869 25.7921 21.6058C25.0957 21.2247 24.5503 20.686 24.1561 19.9896C23.7751 19.2932 23.5846 18.4982 23.5846 17.6047C23.5846 16.3827 23.8671 15.2658 24.4321 14.254C25.0102 13.2422 25.7986 12.4406 26.7973 11.8493C27.8091 11.2581 28.9325 10.9624 30.1677 10.9624C31.0875 10.9624 31.9022 11.1595 32.6117 11.5537C33.3213 11.9348 33.8732 12.4735 34.2674 13.1699C34.6747 13.8532 34.8784 14.6482 34.8784 15.5548C34.8784 16.7768 34.5827 17.8937 33.9914 18.9055C33.4001 19.9173 32.5986 20.7188 31.5868 21.3102C30.575 21.8883 29.4516 22.1774 28.2164 22.1774ZM28.4923 20.2852C29.2413 20.2852 29.9246 20.075 30.5422 19.6545C31.1729 19.2209 31.6657 18.6559 32.0204 17.9594C32.3752 17.2499 32.5526 16.4943 32.5526 15.6928C32.5526 14.7861 32.2964 14.0897 31.7839 13.6035C31.2715 13.1042 30.6276 12.8546 29.8523 12.8546C29.0902 12.8546 28.4069 13.0714 27.8025 13.505C27.2112 13.9255 26.7447 14.4971 26.4031 15.2198C26.0746 15.9293 25.9103 16.6914 25.9103 17.5061C25.9103 18.3865 26.1469 19.0698 26.6199 19.556C27.1061 20.0421 27.7302 20.2852 28.4923 20.2852ZM40.2926 16.5798L44.3529 22H41.3175L38.1245 17.3287L37.2967 22H35.0498L37.6318 7.4146H39.8787L38.3808 15.8702L43.1506 11.1398H46.2648L40.2926 16.5798Z"/>
</mask>
<path d="M11.9048 11.8296C11.7734 12.618 11.4515 13.275 10.939 13.8006C10.4266 14.3262 9.79587 14.7139 9.04689 14.9635C9.65133 15.0687 10.1506 15.3774 10.5449 15.8899C10.939 16.4024 11.1361 17.0068 11.1361 17.7032C11.1361 17.9135 11.1164 18.1171 11.077 18.3142C10.9588 19.0107 10.6697 19.6414 10.2098 20.2064C9.74988 20.7583 9.14544 21.1985 8.39646 21.527C7.66062 21.8423 6.83937 22 5.93271 22H0.45333L2.87766 8.30155H8.10081C9.34911 8.30155 10.3018 8.57092 10.9588 9.10966C11.6289 9.6484 11.964 10.3448 11.964 11.1989C11.964 11.396 11.9443 11.6063 11.9048 11.8296ZM9.57906 12.1056C9.60534 11.9216 9.61848 11.7837 9.61848 11.6917C9.61848 11.1792 9.44109 10.7784 9.08631 10.4894C8.73153 10.2003 8.23221 10.0557 7.58835 10.0557H4.80924L4.09968 14.116H6.87879C7.61463 14.116 8.21907 13.9386 8.69211 13.5838C9.17829 13.229 9.47394 12.7363 9.57906 12.1056ZM8.8695 18.0777C8.89578 17.8675 8.90892 17.7164 8.90892 17.6244C8.90892 17.0856 8.71182 16.6586 8.31762 16.3432C7.92342 16.0279 7.39782 15.8702 6.74082 15.8702H3.78432L3.01563 20.2458H6.05097C6.81309 20.2458 7.44381 20.0553 7.94313 19.6742C8.44245 19.2932 8.75124 18.761 8.8695 18.0777ZM16.6329 22.1774C15.7131 22.1774 14.905 21.9869 14.2086 21.6058C13.5122 21.2247 12.9669 20.686 12.5727 19.9896C12.1916 19.2932 12.0011 18.4982 12.0011 17.6047C12.0011 16.3827 12.2836 15.2658 12.8486 14.254C13.4268 13.2422 14.2152 12.4406 15.2138 11.8493C16.2256 11.2581 17.3491 10.9624 18.5842 10.9624C19.504 10.9624 20.3187 11.1595 21.0283 11.5537C21.7378 11.9348 22.2897 12.4735 22.6839 13.1699C23.0912 13.8532 23.2949 14.6482 23.2949 15.5548C23.2949 16.7768 22.9993 17.8937 22.408 18.9055C21.8167 19.9173 21.0151 20.7188 20.0033 21.3102C18.9916 21.8883 17.8681 22.1774 16.6329 22.1774ZM16.9089 20.2852C17.6578 20.2852 18.3411 20.075 18.9587 19.6545C19.5894 19.2209 20.0822 18.6559 20.437 17.9594C20.7917 17.2499 20.9691 16.4943 20.9691 15.6928C20.9691 14.7861 20.7129 14.0897 20.2004 13.6035C19.688 13.1042 19.0441 12.8546 18.2689 12.8546C17.5067 12.8546 16.8235 13.0714 16.219 13.505C15.6277 13.9255 15.1612 14.4971 14.8196 15.2198C14.4911 15.9293 14.3269 16.6914 14.3269 17.5061C14.3269 18.3865 14.5634 19.0698 15.0364 19.556C15.5226 20.0421 16.1467 20.2852 16.9089 20.2852ZM28.2164 22.1774C27.2966 22.1774 26.4885 21.9869 25.7921 21.6058C25.0957 21.2247 24.5503 20.686 24.1561 19.9896C23.7751 19.2932 23.5846 18.4982 23.5846 17.6047C23.5846 16.3827 23.8671 15.2658 24.4321 14.254C25.0102 13.2422 25.7986 12.4406 26.7973 11.8493C27.8091 11.2581 28.9325 10.9624 30.1677 10.9624C31.0875 10.9624 31.9022 11.1595 32.6117 11.5537C33.3213 11.9348 33.8732 12.4735 34.2674 13.1699C34.6747 13.8532 34.8784 14.6482 34.8784 15.5548C34.8784 16.7768 34.5827 17.8937 33.9914 18.9055C33.4001 19.9173 32.5986 20.7188 31.5868 21.3102C30.575 21.8883 29.4516 22.1774 28.2164 22.1774ZM28.4923 20.2852C29.2413 20.2852 29.9246 20.075 30.5422 19.6545C31.1729 19.2209 31.6657 18.6559 32.0204 17.9594C32.3752 17.2499 32.5526 16.4943 32.5526 15.6928C32.5526 14.7861 32.2964 14.0897 31.7839 13.6035C31.2715 13.1042 30.6276 12.8546 29.8523 12.8546C29.0902 12.8546 28.4069 13.0714 27.8025 13.505C27.2112 13.9255 26.7447 14.4971 26.4031 15.2198C26.0746 15.9293 25.9103 16.6914 25.9103 17.5061C25.9103 18.3865 26.1469 19.0698 26.6199 19.556C27.1061 20.0421 27.7302 20.2852 28.4923 20.2852ZM40.2926 16.5798L44.3529 22H41.3175L38.1245 17.3287L37.2967 22H35.0498L37.6318 7.4146H39.8787L38.3808 15.8702L43.1506 11.1398H46.2648L40.2926 16.5798Z" fill="black"/>
<path d="M11.9048 11.8296L11.5602 11.7688L11.5596 11.7721L11.9048 11.8296ZM10.939 13.8006L10.6884 13.5563L10.939 13.8006ZM9.04689 14.9635L8.93621 14.6315L8.98692 15.3084L9.04689 14.9635ZM10.5449 15.8899L10.8223 15.6765L10.5449 15.8899ZM11.077 18.3142L10.7337 18.2456L10.732 18.2556L11.077 18.3142ZM10.2098 20.2064L10.4787 20.4305L10.4812 20.4273L10.2098 20.2064ZM8.39646 21.527L8.53434 21.8487L8.53704 21.8475L8.39646 21.527ZM0.45333 22L0.108686 21.939L0.0359486 22.35H0.45333V22ZM2.87766 8.30155V7.95155H2.58416L2.53302 8.24055L2.87766 8.30155ZM10.9588 9.10966L10.7368 9.38032L10.7395 9.38244L10.9588 9.10966ZM9.57906 12.1056L9.92439 12.1631L9.92554 12.1551L9.57906 12.1056ZM9.08631 10.4894L9.3074 10.218H9.30739L9.08631 10.4894ZM4.80924 10.0557V9.70574H4.5151L4.46447 9.99549L4.80924 10.0557ZM4.09968 14.116L3.7549 14.0557L3.68321 14.466H4.09968V14.116ZM8.69211 13.5838L8.48578 13.3011L8.48211 13.3038L8.69211 13.5838ZM8.8695 18.0777L9.21437 18.1374L9.21578 18.1293L9.2168 18.1211L8.8695 18.0777ZM8.31762 16.3432L8.09898 16.6165L8.31762 16.3432ZM3.78432 15.8702V15.5202H3.49045L3.4396 15.8096L3.78432 15.8702ZM3.01563 20.2458L2.67091 20.1853L2.59878 20.5958H3.01563V20.2458ZM7.94313 19.6742L8.15547 19.9525L7.94313 19.6742ZM11.5596 11.7721C11.4389 12.4966 11.1466 13.0864 10.6884 13.5563L11.1896 14.045C11.7564 13.4637 12.108 12.7395 12.2501 11.8872L11.5596 11.7721ZM10.6884 13.5563C10.2179 14.0389 9.63632 14.3981 8.93621 14.6315L9.15757 15.2956C9.95542 15.0296 10.6353 14.6135 11.1896 14.045L10.6884 13.5563ZM8.98692 15.3084C9.5 15.3976 9.92353 15.6562 10.2674 16.1033L10.8223 15.6765C10.3778 15.0986 9.80266 14.7397 9.10686 14.6187L8.98692 15.3084ZM10.2674 16.1033C10.6108 16.5497 10.7861 17.0776 10.7861 17.7032H11.4861C11.4861 16.936 11.2673 16.255 10.8223 15.6765L10.2674 16.1033ZM10.7861 17.7032C10.7861 17.8915 10.7685 18.0721 10.7338 18.2456L11.4202 18.3829C11.4644 18.1622 11.4861 17.9355 11.4861 17.7032H10.7861ZM10.732 18.2556C10.6241 18.8906 10.3613 19.4657 9.93833 19.9854L10.4812 20.4273C10.978 19.817 11.2934 19.1307 11.4221 18.3728L10.732 18.2556ZM9.9409 19.9823C9.52025 20.4871 8.96211 20.8967 8.25588 21.2064L8.53704 21.8475C9.32877 21.5002 9.97951 21.0294 10.4787 20.4305L9.9409 19.9823ZM8.25859 21.2053C7.57173 21.4996 6.79824 21.65 5.93271 21.65V22.35C6.8805 22.35 7.74951 22.185 8.53433 21.8487L8.25859 21.2053ZM5.93271 21.65H0.45333V22.35H5.93271V21.65ZM0.797974 22.061L3.2223 8.36254L2.53302 8.24055L0.108686 21.939L0.797974 22.061ZM2.87766 8.65155H8.10081V7.95155H2.87766V8.65155ZM8.10081 8.65155C9.30497 8.65155 10.1659 8.91216 10.7368 9.3803L11.1807 8.83902C10.4376 8.22968 9.39325 7.95155 8.10081 7.95155V8.65155ZM10.7395 9.38244C11.3276 9.85527 11.614 10.4517 11.614 11.1989H12.314C12.314 10.238 11.9302 9.44153 11.1781 8.83688L10.7395 9.38244ZM11.614 11.1989C11.614 11.3729 11.5966 11.5626 11.5602 11.7688L12.2495 11.8905C12.292 11.6499 12.314 11.4192 12.314 11.1989H11.614ZM9.92554 12.1551C9.95231 11.9677 9.96848 11.8095 9.96848 11.6917H9.26848C9.26848 11.7578 9.25837 11.8755 9.23258 12.0561L9.92554 12.1551ZM9.96848 11.6917C9.96848 11.0882 9.7542 10.5821 9.3074 10.218L8.86522 10.7607C9.12799 10.9748 9.26848 11.2702 9.26848 11.6917H9.96848ZM9.30739 10.218C8.86906 9.86086 8.28051 9.70574 7.58835 9.70574V10.4057C8.18391 10.4057 8.594 10.5397 8.86522 10.7607L9.30739 10.218ZM7.58835 9.70574H4.80924V10.4057H7.58835V9.70574ZM4.46447 9.99549L3.7549 14.0557L4.44445 14.1763L5.15402 10.116L4.46447 9.99549ZM4.09968 14.466H6.87879V13.766H4.09968V14.466ZM6.87879 14.466C7.67154 14.466 8.35499 14.2742 8.90211 13.8638L8.48211 13.3038C8.08315 13.603 7.55772 13.766 6.87879 13.766V14.466ZM8.89842 13.8666C9.46355 13.4542 9.80516 12.878 9.9243 12.1631L9.23382 12.048C9.14272 12.5946 8.89303 13.0039 8.4858 13.3011L8.89842 13.8666ZM9.2168 18.1211C9.24317 17.9101 9.25892 17.7401 9.25892 17.6244H8.55892C8.55892 17.6926 8.54839 17.8248 8.5222 18.0343L9.2168 18.1211ZM9.25892 17.6244C9.25892 16.9875 9.0197 16.4567 8.53626 16.0699L8.09898 16.6165C8.40394 16.8605 8.55892 17.1837 8.55892 17.6244H9.25892ZM8.53626 16.0699C8.06344 15.6917 7.45311 15.5202 6.74082 15.5202V16.2202C7.34253 16.2202 7.7834 16.3641 8.09898 16.6165L8.53626 16.0699ZM6.74082 15.5202H3.78432V16.2202H6.74082V15.5202ZM3.4396 15.8096L2.67091 20.1853L3.36035 20.3064L4.12904 15.9307L3.4396 15.8096ZM3.01563 20.5958H6.05097V19.8958H3.01563V20.5958ZM6.05097 20.5958C6.87301 20.5958 7.58301 20.3893 8.15547 19.9525L7.73079 19.396C7.30461 19.7212 6.75317 19.8958 6.05097 19.8958V20.5958ZM8.15547 19.9525C8.73247 19.5121 9.08276 18.8978 9.21437 18.1374L8.52463 18.018C8.41972 18.6242 8.15243 19.0742 7.73079 19.396L8.15547 19.9525ZM14.2086 21.6058L14.0406 21.9128L14.2086 21.6058ZM12.5727 19.9896L12.2656 20.1576L12.2681 20.162L12.5727 19.9896ZM12.8486 14.254L12.5447 14.0803L12.543 14.0833L12.8486 14.254ZM15.2138 11.8493L15.0372 11.5472L15.0355 11.5482L15.2138 11.8493ZM21.0283 11.5537L20.8583 11.8597L20.8627 11.862L21.0283 11.5537ZM22.6839 13.1699L22.3792 13.3424L22.3833 13.3491L22.6839 13.1699ZM22.408 18.9055L22.7101 19.0821L22.408 18.9055ZM20.0033 21.3102L20.177 21.614L20.1799 21.6123L20.0033 21.3102ZM18.9587 19.6545L19.1557 19.9438L19.157 19.9429L18.9587 19.6545ZM20.437 17.9594L20.7488 18.1183L20.75 18.116L20.437 17.9594ZM20.2004 13.6035L19.9562 13.8542L19.9595 13.8575L20.2004 13.6035ZM16.219 13.505L16.4219 13.7902L16.423 13.7894L16.219 13.505ZM14.8196 15.2198L14.5032 15.0702L14.502 15.0727L14.8196 15.2198ZM15.0364 19.556L14.7855 19.8001L14.7889 19.8034L15.0364 19.556ZM16.6329 21.8274C15.7625 21.8274 15.0139 21.6474 14.3766 21.2988L14.0406 21.9128C14.7962 22.3263 15.6638 22.5274 16.6329 22.5274V21.8274ZM14.3766 21.2988C13.7378 20.9492 13.2396 20.4574 12.8773 19.8172L12.2681 20.162C12.6941 20.9146 13.2865 21.5002 14.0406 21.9128L14.3766 21.2988ZM12.8797 19.8216C12.5302 19.1829 12.3511 18.447 12.3511 17.6047H11.6511C11.6511 18.5494 11.853 19.4035 12.2656 20.1576L12.8797 19.8216ZM12.3511 17.6047C12.3511 16.439 12.6199 15.3814 13.1542 14.4246L12.543 14.0833C11.9473 15.1501 11.6511 16.3263 11.6511 17.6047H12.3511ZM13.1525 14.4276C13.7007 13.4683 14.4459 12.7108 15.3921 12.1505L15.0355 11.5482C13.9844 12.1705 13.1529 13.0161 12.5447 14.0803L13.1525 14.4276ZM15.3904 12.1515C16.3457 11.5933 17.4076 11.3124 18.5842 11.3124V10.6124C17.2905 10.6124 16.1055 10.9228 15.0372 11.5472L15.3904 12.1515ZM18.5842 11.3124C19.4526 11.3124 20.2073 11.498 20.8583 11.8597L21.1982 11.2477C20.4301 10.821 19.5555 10.6124 18.5842 10.6124V11.3124ZM20.8627 11.862C21.5144 12.212 22.0179 12.7038 22.3793 13.3423L22.9885 12.9975C22.5615 12.2432 21.9613 11.6575 21.1939 11.2454L20.8627 11.862ZM22.3833 13.3491C22.754 13.971 22.9449 14.7023 22.9449 15.5548H23.6449C23.6449 14.5941 23.4285 13.7354 22.9845 12.9907L22.3833 13.3491ZM22.9449 15.5548C22.9449 16.7176 22.6644 17.7731 22.1058 18.7289L22.7101 19.0821C23.3341 18.0144 23.6449 16.8361 23.6449 15.5548H22.9449ZM22.1058 18.7289C21.5448 19.6887 20.7866 20.447 19.8267 21.008L20.1799 21.6123C21.2437 20.9907 22.0885 20.1459 22.7101 19.0821L22.1058 18.7289ZM19.8297 21.0063C18.874 21.5524 17.811 21.8274 16.6329 21.8274V22.5274C17.9252 22.5274 19.1091 22.2242 20.177 21.614L19.8297 21.0063ZM16.9089 20.6352C17.7279 20.6352 18.4799 20.4039 19.1557 19.9438L18.7617 19.3652C18.2024 19.746 17.5878 19.9352 16.9089 19.9352V20.6352ZM19.157 19.9429C19.8368 19.4755 20.3682 18.8656 20.7488 18.1183L20.1251 17.8006C19.7962 18.4462 19.342 18.9662 18.7604 19.3661L19.157 19.9429ZM20.75 18.116C21.1293 17.3573 21.3191 16.5481 21.3191 15.6928H20.6191C20.6191 16.4406 20.4541 17.1425 20.1239 17.8029L20.75 18.116ZM21.3191 15.6928C21.3191 14.7189 21.0419 13.9194 20.4413 13.3496L19.9595 13.8575C20.3839 14.2601 20.6191 14.8534 20.6191 15.6928H21.3191ZM20.4447 13.3529C19.8611 12.7842 19.127 12.5046 18.2689 12.5046V13.2046C18.9612 13.2046 19.5148 13.4242 19.9562 13.8542L20.4447 13.3529ZM18.2689 12.5046C17.4355 12.5046 16.6805 12.7432 16.015 13.2206L16.423 13.7894C16.9665 13.3995 17.578 13.2046 18.2689 13.2046V12.5046ZM16.0162 13.2198C15.3712 13.6784 14.8678 14.2989 14.5032 15.0702L15.136 15.3693C15.4547 14.6952 15.8843 14.1725 16.4219 13.7902L16.0162 13.2198ZM14.502 15.0727C14.1513 15.8303 13.9769 16.6428 13.9769 17.5061H14.6769C14.6769 16.74 14.831 16.0283 15.1372 15.3668L14.502 15.0727ZM13.9769 17.5061C13.9769 18.4495 14.2317 19.2308 14.7856 19.8L15.2873 19.3119C14.8951 18.9088 14.6769 18.3235 14.6769 17.5061H13.9769ZM14.7889 19.8034C15.3482 20.3627 16.065 20.6352 16.9089 20.6352V19.9352C16.2285 19.9352 15.697 19.7216 15.2839 19.3085L14.7889 19.8034ZM25.7921 21.6058L25.6241 21.9128H25.6241L25.7921 21.6058ZM24.1561 19.9896L23.8491 20.1576L23.8516 20.162L24.1561 19.9896ZM24.4321 14.254L24.1282 14.0803L24.1265 14.0833L24.4321 14.254ZM26.7973 11.8493L26.6207 11.5472L26.619 11.5482L26.7973 11.8493ZM32.6117 11.5537L32.4417 11.8597L32.4461 11.862L32.6117 11.5537ZM34.2674 13.1699L33.9627 13.3424L33.9667 13.3491L34.2674 13.1699ZM33.9914 18.9055L34.2936 19.0821L33.9914 18.9055ZM31.5868 21.3102L31.7605 21.614L31.7634 21.6123L31.5868 21.3102ZM30.5422 19.6545L30.7392 19.9438L30.7405 19.9429L30.5422 19.6545ZM32.0204 17.9594L32.3323 18.1183L32.3335 18.116L32.0204 17.9594ZM31.7839 13.6035L31.5396 13.8542L31.543 13.8575L31.7839 13.6035ZM27.8025 13.505L28.0053 13.7902L28.0065 13.7894L27.8025 13.505ZM26.4031 15.2198L26.0866 15.0702L26.0855 15.0727L26.4031 15.2198ZM26.6199 19.556L26.369 19.8001L26.3724 19.8034L26.6199 19.556ZM28.2164 21.8274C27.3459 21.8274 26.5973 21.6474 25.9601 21.2988L25.6241 21.9128C26.3797 22.3263 27.2473 22.5274 28.2164 22.5274V21.8274ZM25.9601 21.2988C25.3213 20.9492 24.8231 20.4574 24.4607 19.8172L23.8516 20.162C24.2776 20.9146 24.87 21.5002 25.6241 21.9128L25.9601 21.2988ZM24.4632 19.8216C24.1137 19.1829 23.9346 18.447 23.9346 17.6047H23.2346C23.2346 18.5494 23.4365 19.4035 23.8491 20.1576L24.4632 19.8216ZM23.9346 17.6047C23.9346 16.439 24.2034 15.3814 24.7377 14.4246L24.1265 14.0833C23.5308 15.1501 23.2346 16.3263 23.2346 17.6047H23.9346ZM24.736 14.4276C25.2842 13.4683 26.0294 12.7108 26.9756 12.1505L26.619 11.5482C25.5679 12.1705 24.7363 13.0161 24.1282 14.0803L24.736 14.4276ZM26.9739 12.1515C27.9291 11.5933 28.9911 11.3124 30.1677 11.3124V10.6124C28.874 10.6124 27.689 10.9228 26.6207 11.5472L26.9739 12.1515ZM30.1677 11.3124C31.0361 11.3124 31.7908 11.498 32.4418 11.8597L32.7817 11.2477C32.0135 10.821 31.1389 10.6124 30.1677 10.6124V11.3124ZM32.4461 11.862C33.0979 12.212 33.6014 12.7038 33.9628 13.3423L34.572 12.9975C34.145 12.2432 33.5447 11.6575 32.7773 11.2454L32.4461 11.862ZM33.9667 13.3491C34.3375 13.971 34.5284 14.7023 34.5284 15.5548H35.2284C35.2284 14.5941 35.012 13.7354 34.568 12.9907L33.9667 13.3491ZM34.5284 15.5548C34.5284 16.7176 34.2479 17.7731 33.6893 18.7289L34.2936 19.0821C34.9176 18.0144 35.2284 16.8361 35.2284 15.5548H34.5284ZM33.6893 18.7289C33.1283 19.6887 32.37 20.447 31.4102 21.008L31.7634 21.6123C32.8272 20.9907 33.6719 20.1459 34.2936 19.0821L33.6893 18.7289ZM31.4132 21.0063C30.4575 21.5524 29.3944 21.8274 28.2164 21.8274V22.5274C29.5087 22.5274 30.6926 22.2242 31.7605 21.614L31.4132 21.0063ZM28.4923 20.6352C29.3114 20.6352 30.0633 20.4039 30.7392 19.9438L30.3452 19.3652C29.7859 19.746 29.1712 19.9352 28.4923 19.9352V20.6352ZM30.7405 19.9429C31.4203 19.4755 31.9516 18.8656 32.3323 18.1183L31.7086 17.8006C31.3797 18.4462 30.9255 18.9662 30.3439 19.3661L30.7405 19.9429ZM32.3335 18.116C32.7128 17.3573 32.9026 16.5481 32.9026 15.6928H32.2026C32.2026 16.4406 32.0376 17.1425 31.7074 17.8029L32.3335 18.116ZM32.9026 15.6928C32.9026 14.7189 32.6253 13.9194 32.0248 13.3496L31.543 13.8575C31.9674 14.2601 32.2026 14.8534 32.2026 15.6928H32.9026ZM32.0282 13.3529C31.4446 12.7842 30.7105 12.5046 29.8523 12.5046V13.2046C30.5447 13.2046 31.0983 13.4242 31.5397 13.8542L32.0282 13.3529ZM29.8523 12.5046C29.0189 12.5046 28.2639 12.7432 27.5985 13.2206L28.0065 13.7894C28.5499 13.3995 29.1615 13.2046 29.8523 13.2046V12.5046ZM27.5997 13.2198C26.9547 13.6784 26.4513 14.2989 26.0867 15.0702L26.7195 15.3693C27.0382 14.6952 27.4677 14.1725 28.0053 13.7902L27.5997 13.2198ZM26.0855 15.0727C25.7347 15.8303 25.5603 16.6428 25.5603 17.5061H26.2603C26.2603 16.74 26.4144 16.0283 26.7207 15.3668L26.0855 15.0727ZM25.5603 17.5061C25.5603 18.4495 25.8152 19.2308 26.369 19.8L26.8707 19.3119C26.4786 18.9088 26.2603 18.3235 26.2603 17.5061H25.5603ZM26.3724 19.8034C26.9316 20.3627 27.6484 20.6352 28.4923 20.6352V19.9352C27.812 19.9352 27.2805 19.7216 26.8674 19.3085L26.3724 19.8034ZM40.2926 16.5798L40.0569 16.321L39.8219 16.5351L40.0125 16.7896L40.2926 16.5798ZM44.3529 22V22.35H45.0524L44.633 21.7902L44.3529 22ZM41.3176 22L41.0286 22.1975L41.1328 22.35H41.3176V22ZM38.1245 17.3287L38.4135 17.1312L37.9295 16.4232L37.7799 17.2677L38.1245 17.3287ZM37.2967 22V22.35H37.5901L37.6413 22.0611L37.2967 22ZM35.0498 22L34.7051 21.939L34.6324 22.35H35.0498V22ZM37.6318 7.4146V7.0646H37.3383L37.2871 7.35359L37.6318 7.4146ZM39.8787 7.4146L40.2234 7.47565L40.2962 7.0646H39.8787V7.4146ZM38.3808 15.8702L38.0361 15.8091L37.8436 16.8958L38.6272 16.1187L38.3808 15.8702ZM43.1506 11.1398V10.7898H43.0065L42.9041 10.8913L43.1506 11.1398ZM46.2648 11.1398L46.5005 11.3985L47.1687 10.7898H46.2648V11.1398ZM40.0125 16.7896L44.0728 22.2098L44.633 21.7902L40.5728 16.3699L40.0125 16.7896ZM44.3529 21.65H41.3176V22.35H44.3529V21.65ZM41.6065 21.8025L38.4135 17.1312L37.8356 17.5262L41.0286 22.1975L41.6065 21.8025ZM37.7799 17.2677L36.9521 21.9389L37.6413 22.0611L38.4692 17.3898L37.7799 17.2677ZM37.2967 21.65H35.0498V22.35H37.2967V21.65ZM35.3944 22.061L37.9764 7.47561L37.2871 7.35359L34.7051 21.939L35.3944 22.061ZM37.6318 7.7646H39.8787V7.0646H37.6318V7.7646ZM39.5341 7.35355L38.0361 15.8091L38.7254 15.9312L40.2234 7.47565L39.5341 7.35355ZM38.6272 16.1187L43.397 11.3883L42.9041 10.8913L38.1343 15.6217L38.6272 16.1187ZM43.1506 11.4898H46.2648V10.7898H43.1506V11.4898ZM46.0291 10.881L40.0569 16.321L40.5283 16.8385L46.5005 11.3985L46.0291 10.881Z" fill="black" mask="url(#path-1-outside-1_37_86)"/>
<mask id="path-3-outside-2_37_86" maskUnits="userSpaceOnUse" x="2" y="19" width="49" height="17" fill="black">
<rect fill="white" x="2" y="19" width="49" height="17"/>
<path d="M12.626 20.9332L10.8449 31.0734C10.6155 32.3283 10.0488 33.3201 9.14472 34.0487C8.25416 34.7774 7.19493 35.1417 5.96704 35.1417C4.88757 35.1417 4.03075 34.8651 3.39656 34.3118C2.77587 33.7451 2.46552 32.9693 2.46552 31.9842C2.46552 31.6604 2.49251 31.3568 2.54648 31.0734H4.87408C4.84709 31.1949 4.8336 31.3703 4.8336 31.5997C4.8336 32.0585 4.95504 32.4228 5.19792 32.6926C5.45429 32.9625 5.83211 33.0974 6.33136 33.0974C6.92507 33.0974 7.40408 32.9153 7.7684 32.551C8.14621 32.1731 8.39584 31.6806 8.51728 31.0734L10.2984 20.9332H12.626ZM19.6787 23.6656C21.0685 23.6656 22.175 24.0569 22.9981 24.8395C23.8346 25.6221 24.2529 26.6746 24.2529 27.997C24.2529 28.3073 24.2192 28.6784 24.1517 29.1102C24.0978 29.407 24.0033 29.7713 23.8684 30.2031H15.3473C15.3338 30.2976 15.3271 30.4393 15.3271 30.6282C15.3271 31.4243 15.57 32.0585 16.0557 32.5307C16.555 33.003 17.2027 33.2391 17.9988 33.2391C19.2537 33.2391 20.2184 32.7196 20.8931 31.6806H23.3826C22.8699 32.7061 22.1142 33.5495 21.1157 34.2106C20.1172 34.8583 18.9635 35.1822 17.6547 35.1822C16.7237 35.1822 15.9073 35 15.2057 34.6357C14.504 34.2714 13.9575 33.7519 13.5662 33.0772C13.1749 32.389 12.9793 31.5862 12.9793 30.6686C12.9793 30.2773 13.0197 29.859 13.1007 29.4138C13.3031 28.2668 13.7146 27.2616 14.3353 26.398C14.956 25.5209 15.7251 24.8463 16.6427 24.374C17.5737 23.9017 18.5857 23.6656 19.6787 23.6656ZM21.8444 28.5434C21.8714 28.3006 21.8849 28.1251 21.8849 28.0172C21.8849 27.2751 21.6352 26.6881 21.136 26.2563C20.6502 25.8245 20.016 25.6086 19.2334 25.6086C18.4103 25.6086 17.6682 25.8718 17.007 26.398C16.3458 26.9242 15.8938 27.6394 15.6509 28.5434H21.8444ZM24.5806 29.3733C24.783 28.2533 25.1878 27.2616 25.795 26.398C26.4157 25.5344 27.1713 24.8665 28.0618 24.3942C28.9524 23.9085 29.8902 23.6656 30.8752 23.6656C31.6038 23.6656 32.292 23.8275 32.9397 24.1514C33.5874 24.4617 34.0799 24.88 34.4172 25.4062L35.3685 20.0224H37.6961L35.0446 35H32.717L33.0206 33.3201C32.5349 33.8733 31.9277 34.3253 31.199 34.6762C30.4839 35.0135 29.6945 35.1822 28.831 35.1822C27.9809 35.1822 27.2253 34.9933 26.5641 34.6154C25.9029 34.2376 25.3834 33.7046 25.0056 33.0165C24.6413 32.3148 24.4591 31.512 24.4591 30.6079C24.4591 30.2031 24.4996 29.7916 24.5806 29.3733ZM33.7088 29.4138C33.7628 29.1574 33.7898 28.8808 33.7898 28.5839C33.7898 27.6799 33.5199 26.9715 32.9802 26.4587C32.4539 25.9325 31.7928 25.6694 30.9966 25.6694C30.4029 25.6694 29.8227 25.8178 29.256 26.1146C28.6893 26.398 28.1968 26.823 27.7785 27.3898C27.3602 27.943 27.0836 28.6042 26.9486 29.3733C26.8947 29.6297 26.8677 29.9063 26.8677 30.2031C26.8677 31.1207 27.1308 31.8493 27.657 32.389C28.1968 32.9153 28.8647 33.1784 29.6608 33.1784C30.2545 33.1784 30.8347 33.03 31.4014 32.7331C31.9682 32.4363 32.4607 32.0045 32.879 31.4378C33.2973 30.8575 33.5739 30.1829 33.7088 29.4138ZM37.2859 29.3733C37.4883 28.2533 37.8931 27.2616 38.5003 26.398C39.121 25.5344 39.8766 24.8665 40.7672 24.3942C41.6577 23.9085 42.5955 23.6656 43.5805 23.6656C44.3092 23.6656 44.9973 23.8275 45.645 24.1514C46.2927 24.4617 46.7852 24.88 47.1225 25.4062L48.0738 20.0224H50.4014L47.75 35H45.4224L45.726 33.3201C45.2402 33.8733 44.633 34.3253 43.9044 34.6762C43.1892 35.0135 42.3999 35.1822 41.5363 35.1822C40.6862 35.1822 39.9306 34.9933 39.2694 34.6154C38.6083 34.2376 38.0888 33.7046 37.7109 33.0165C37.3466 32.3148 37.1645 31.512 37.1645 30.6079C37.1645 30.2031 37.2049 29.7916 37.2859 29.3733ZM46.4141 29.4138C46.4681 29.1574 46.4951 28.8808 46.4951 28.5839C46.4951 27.6799 46.2252 26.9715 45.6855 26.4587C45.1593 25.9325 44.4981 25.6694 43.702 25.6694C43.1083 25.6694 42.5281 25.8178 41.9613 26.1146C41.3946 26.398 40.9021 26.823 40.4838 27.3898C40.0655 27.943 39.7889 28.6042 39.654 29.3733C39.6 29.6297 39.573 29.9063 39.573 30.2031C39.573 31.1207 39.8361 31.8493 40.3624 32.389C40.9021 32.9153 41.57 33.1784 42.3661 33.1784C42.9599 33.1784 43.5401 33.03 44.1068 32.7331C44.6735 32.4363 45.166 32.0045 45.5843 31.4378C46.0026 30.8575 46.2792 30.1829 46.4141 29.4138Z"/>
</mask>
<path d="M12.626 20.9332L10.8449 31.0734C10.6155 32.3283 10.0488 33.3201 9.14472 34.0487C8.25416 34.7774 7.19493 35.1417 5.96704 35.1417C4.88757 35.1417 4.03075 34.8651 3.39656 34.3118C2.77587 33.7451 2.46552 32.9693 2.46552 31.9842C2.46552 31.6604 2.49251 31.3568 2.54648 31.0734H4.87408C4.84709 31.1949 4.8336 31.3703 4.8336 31.5997C4.8336 32.0585 4.95504 32.4228 5.19792 32.6926C5.45429 32.9625 5.83211 33.0974 6.33136 33.0974C6.92507 33.0974 7.40408 32.9153 7.7684 32.551C8.14621 32.1731 8.39584 31.6806 8.51728 31.0734L10.2984 20.9332H12.626ZM19.6787 23.6656C21.0685 23.6656 22.175 24.0569 22.9981 24.8395C23.8346 25.6221 24.2529 26.6746 24.2529 27.997C24.2529 28.3073 24.2192 28.6784 24.1517 29.1102C24.0978 29.407 24.0033 29.7713 23.8684 30.2031H15.3473C15.3338 30.2976 15.3271 30.4393 15.3271 30.6282C15.3271 31.4243 15.57 32.0585 16.0557 32.5307C16.555 33.003 17.2027 33.2391 17.9988 33.2391C19.2537 33.2391 20.2184 32.7196 20.8931 31.6806H23.3826C22.8699 32.7061 22.1142 33.5495 21.1157 34.2106C20.1172 34.8583 18.9635 35.1822 17.6547 35.1822C16.7237 35.1822 15.9073 35 15.2057 34.6357C14.504 34.2714 13.9575 33.7519 13.5662 33.0772C13.1749 32.389 12.9793 31.5862 12.9793 30.6686C12.9793 30.2773 13.0197 29.859 13.1007 29.4138C13.3031 28.2668 13.7146 27.2616 14.3353 26.398C14.956 25.5209 15.7251 24.8463 16.6427 24.374C17.5737 23.9017 18.5857 23.6656 19.6787 23.6656ZM21.8444 28.5434C21.8714 28.3006 21.8849 28.1251 21.8849 28.0172C21.8849 27.2751 21.6352 26.6881 21.136 26.2563C20.6502 25.8245 20.016 25.6086 19.2334 25.6086C18.4103 25.6086 17.6682 25.8718 17.007 26.398C16.3458 26.9242 15.8938 27.6394 15.6509 28.5434H21.8444ZM24.5806 29.3733C24.783 28.2533 25.1878 27.2616 25.795 26.398C26.4157 25.5344 27.1713 24.8665 28.0618 24.3942C28.9524 23.9085 29.8902 23.6656 30.8752 23.6656C31.6038 23.6656 32.292 23.8275 32.9397 24.1514C33.5874 24.4617 34.0799 24.88 34.4172 25.4062L35.3685 20.0224H37.6961L35.0446 35H32.717L33.0206 33.3201C32.5349 33.8733 31.9277 34.3253 31.199 34.6762C30.4839 35.0135 29.6945 35.1822 28.831 35.1822C27.9809 35.1822 27.2253 34.9933 26.5641 34.6154C25.9029 34.2376 25.3834 33.7046 25.0056 33.0165C24.6413 32.3148 24.4591 31.512 24.4591 30.6079C24.4591 30.2031 24.4996 29.7916 24.5806 29.3733ZM33.7088 29.4138C33.7628 29.1574 33.7898 28.8808 33.7898 28.5839C33.7898 27.6799 33.5199 26.9715 32.9802 26.4587C32.4539 25.9325 31.7928 25.6694 30.9966 25.6694C30.4029 25.6694 29.8227 25.8178 29.256 26.1146C28.6893 26.398 28.1968 26.823 27.7785 27.3898C27.3602 27.943 27.0836 28.6042 26.9486 29.3733C26.8947 29.6297 26.8677 29.9063 26.8677 30.2031C26.8677 31.1207 27.1308 31.8493 27.657 32.389C28.1968 32.9153 28.8647 33.1784 29.6608 33.1784C30.2545 33.1784 30.8347 33.03 31.4014 32.7331C31.9682 32.4363 32.4607 32.0045 32.879 31.4378C33.2973 30.8575 33.5739 30.1829 33.7088 29.4138ZM37.2859 29.3733C37.4883 28.2533 37.8931 27.2616 38.5003 26.398C39.121 25.5344 39.8766 24.8665 40.7672 24.3942C41.6577 23.9085 42.5955 23.6656 43.5805 23.6656C44.3092 23.6656 44.9973 23.8275 45.645 24.1514C46.2927 24.4617 46.7852 24.88 47.1225 25.4062L48.0738 20.0224H50.4014L47.75 35H45.4224L45.726 33.3201C45.2402 33.8733 44.633 34.3253 43.9044 34.6762C43.1892 35.0135 42.3999 35.1822 41.5363 35.1822C40.6862 35.1822 39.9306 34.9933 39.2694 34.6154C38.6083 34.2376 38.0888 33.7046 37.7109 33.0165C37.3466 32.3148 37.1645 31.512 37.1645 30.6079C37.1645 30.2031 37.2049 29.7916 37.2859 29.3733ZM46.4141 29.4138C46.4681 29.1574 46.4951 28.8808 46.4951 28.5839C46.4951 27.6799 46.2252 26.9715 45.6855 26.4587C45.1593 25.9325 44.4981 25.6694 43.702 25.6694C43.1083 25.6694 42.5281 25.8178 41.9613 26.1146C41.3946 26.398 40.9021 26.823 40.4838 27.3898C40.0655 27.943 39.7889 28.6042 39.654 29.3733C39.6 29.6297 39.573 29.9063 39.573 30.2031C39.573 31.1207 39.8361 31.8493 40.3624 32.389C40.9021 32.9153 41.57 33.1784 42.3661 33.1784C42.9599 33.1784 43.5401 33.03 44.1068 32.7331C44.6735 32.4363 45.166 32.0045 45.5843 31.4378C46.0026 30.8575 46.2792 30.1829 46.4141 29.4138Z" fill="black"/>
<path d="M12.626 20.9332L12.9707 20.9937L13.0428 20.5832H12.626V20.9332ZM10.8449 31.0734L11.1892 31.1364L11.1896 31.134L10.8449 31.0734ZM9.14472 34.0487L8.92508 33.7762L8.92309 33.7778L9.14472 34.0487ZM3.39656 34.3118L3.16051 34.5704L3.16648 34.5756L3.39656 34.3118ZM2.54648 31.0734V30.7234H2.25685L2.20266 31.0079L2.54648 31.0734ZM4.87408 31.0734L5.21575 31.1494L5.3104 30.7234H4.87408V31.0734ZM5.19792 32.6926L4.93767 32.9269L4.94417 32.9337L5.19792 32.6926ZM7.7684 32.551L8.01589 32.7984L7.7684 32.551ZM8.51728 31.0734L8.86058 31.1421L8.862 31.134L8.51728 31.0734ZM10.2984 20.9332V20.5832H10.0045L9.95368 20.8726L10.2984 20.9332ZM12.2813 20.8726L10.5002 31.0129L11.1896 31.134L12.9707 20.9937L12.2813 20.8726ZM10.5006 31.0105C10.2847 32.1916 9.7572 33.1056 8.92509 33.7762L9.36435 34.3212C10.3404 33.5346 10.9463 32.465 11.1892 31.1364L10.5006 31.0105ZM8.92309 33.7778C8.09943 34.4517 7.11998 34.7917 5.96704 34.7917V35.4917C7.26989 35.4917 8.40889 35.103 9.36635 34.3196L8.92309 33.7778ZM5.96704 34.7917C4.94763 34.7917 4.18074 34.5315 3.62664 34.0481L3.16648 34.5756C3.88075 35.1987 4.82752 35.4917 5.96704 35.4917V34.7917ZM3.63255 34.0534C3.09711 33.5645 2.81552 32.8894 2.81552 31.9842H2.11552C2.11552 33.0491 2.45462 33.9258 3.16057 34.5703L3.63255 34.0534ZM2.81552 31.9842C2.81552 31.6797 2.8409 31.3983 2.8903 31.1389L2.20266 31.0079C2.14411 31.3153 2.11552 31.6411 2.11552 31.9842H2.81552ZM2.54648 31.4234H4.87408V30.7234H2.54648V31.4234ZM4.53241 30.9975C4.49706 31.1566 4.4836 31.3623 4.4836 31.5997H5.1836C5.1836 31.3783 5.19712 31.2332 5.21575 31.1494L4.53241 30.9975ZM4.4836 31.5997C4.4836 32.1213 4.62299 32.577 4.93777 32.9268L5.45807 32.4585C5.28709 32.2685 5.1836 31.9956 5.1836 31.5997H4.4836ZM4.94417 32.9337C5.28688 33.2944 5.77019 33.4474 6.33136 33.4474V32.7474C5.89402 32.7474 5.62171 32.6306 5.45167 32.4516L4.94417 32.9337ZM6.33136 33.4474C7.00257 33.4474 7.57583 33.2385 8.01589 32.7984L7.52091 32.3035C7.23233 32.5921 6.84757 32.7474 6.33136 32.7474V33.4474ZM8.01589 32.7984C8.44996 32.3644 8.7277 31.806 8.86048 31.1421L8.17408 31.0048C8.06398 31.5553 7.84247 31.9819 7.52091 32.3035L8.01589 32.7984ZM8.862 31.134L10.6431 20.9937L9.95368 20.8726L8.17256 31.0129L8.862 31.134ZM10.2984 21.2832H12.626V20.5832H10.2984V21.2832ZM22.9981 24.8395L22.7569 25.0932L22.7589 25.0951L22.9981 24.8395ZM24.1517 29.1102L24.4962 29.1728L24.4975 29.1642L24.1517 29.1102ZM23.8684 30.2031V30.5531H24.1257L24.2024 30.3075L23.8684 30.2031ZM15.3473 30.2031V29.8531H15.0438L15.0008 30.1536L15.3473 30.2031ZM16.0557 32.5307L15.8117 32.7817L15.8152 32.785L16.0557 32.5307ZM20.8931 31.6806V31.3306H20.703L20.5995 31.49L20.8931 31.6806ZM23.3826 31.6806L23.6957 31.8372L23.9489 31.3306H23.3826V31.6806ZM21.1157 34.2106L21.3062 34.5043L21.309 34.5025L21.1157 34.2106ZM15.2057 34.6357L15.3669 34.3251L15.2057 34.6357ZM13.5662 33.0772L13.2619 33.2502L13.2634 33.2528L13.5662 33.0772ZM13.1007 29.4138L13.4451 29.4764L13.4454 29.4746L13.1007 29.4138ZM14.3353 26.398L14.6195 26.6023L14.621 26.6002L14.3353 26.398ZM16.6427 24.374L16.4844 24.0619L16.4825 24.0628L16.6427 24.374ZM21.8444 28.5434V28.8934H22.1576L22.1922 28.5821L21.8444 28.5434ZM21.136 26.2563L20.9034 26.5179L20.907 26.521L21.136 26.2563ZM15.6509 28.5434L15.3129 28.4526L15.1945 28.8934H15.6509V28.5434ZM19.6787 24.0156C20.9999 24.0156 22.0127 24.3856 22.7569 25.0932L23.2392 24.5859C22.3372 23.7282 21.1371 23.3156 19.6787 23.3156V24.0156ZM22.7589 25.0951C23.5137 25.8011 23.9029 26.7551 23.9029 27.997H24.6029C24.6029 26.5941 24.1556 25.4431 23.2372 24.5839L22.7589 25.0951ZM23.9029 27.997C23.9029 28.2836 23.8716 28.6356 23.8059 29.0561L24.4975 29.1642C24.5668 28.7211 24.6029 28.331 24.6029 27.997H23.9029ZM23.8074 29.0476C23.7569 29.3252 23.6668 29.6746 23.5343 30.0987L24.2024 30.3075C24.3398 29.8681 24.4386 29.4888 24.4961 29.1728L23.8074 29.0476ZM23.8684 29.8531H15.3473V30.5531H23.8684V29.8531ZM15.0008 30.1536C14.9837 30.2735 14.9771 30.4354 14.9771 30.6282H15.6771C15.6771 30.4431 15.684 30.3216 15.6938 30.2526L15.0008 30.1536ZM14.9771 30.6282C14.9771 31.5009 15.2464 32.232 15.8118 32.7817L16.2997 32.2798C15.8936 31.8849 15.6771 31.3476 15.6771 30.6282H14.9771ZM15.8152 32.785C16.3897 33.3284 17.1284 33.5891 17.9988 33.5891V32.8891C17.2769 32.8891 16.7202 32.6775 16.2963 32.2765L15.8152 32.785ZM17.9988 33.5891C19.3703 33.5891 20.4464 33.0112 21.1866 31.8713L20.5995 31.49C19.9904 32.4281 19.137 32.8891 17.9988 32.8891V33.5891ZM20.8931 32.0306H23.3826V31.3306H20.8931V32.0306ZM23.0696 31.5241C22.5855 32.4923 21.8723 33.2899 20.9225 33.9188L21.309 34.5025C22.3562 33.809 23.1543 32.92 23.6957 31.8372L23.0696 31.5241ZM20.9253 33.917C19.9891 34.5243 18.9029 34.8322 17.6547 34.8322V35.5322C19.0241 35.5322 20.2454 35.1924 21.3062 34.5043L20.9253 33.917ZM17.6547 34.8322C16.7698 34.8322 16.0106 34.6593 15.3669 34.3251L15.0444 34.9463C15.804 35.3407 16.6775 35.5322 17.6547 35.5322V34.8322ZM15.3669 34.3251C14.7235 33.9909 14.2264 33.5179 13.869 32.9016L13.2634 33.2528C13.6886 33.9858 14.2845 34.5518 15.0444 34.9463L15.3669 34.3251ZM13.8705 32.9042C13.5136 32.2766 13.3293 31.5353 13.3293 30.6686H12.6293C12.6293 31.6371 12.8362 32.5014 13.262 33.2502L13.8705 32.9042ZM13.3293 30.6686C13.3293 30.3013 13.3673 29.9041 13.445 29.4764L12.7563 29.3512C12.6722 29.814 12.6293 30.2534 12.6293 30.6686H13.3293ZM13.4454 29.4746C13.6395 28.3744 14.0323 27.4192 14.6195 26.6023L14.0511 26.1937C13.3969 27.1039 12.9667 28.1592 12.756 29.3529L13.4454 29.4746ZM14.621 26.6002C15.2106 25.7671 15.9374 25.1307 16.8029 24.6852L16.4825 24.0628C15.5129 24.5619 14.7014 25.2748 14.0496 26.1958L14.621 26.6002ZM16.801 24.6861C17.6807 24.2399 18.6381 24.0156 19.6787 24.0156V23.3156C18.5334 23.3156 17.4668 23.5635 16.4844 24.0619L16.801 24.6861ZM22.1922 28.5821C22.2193 28.3383 22.2349 28.1461 22.2349 28.0172H21.5349C21.5349 28.1042 21.5234 28.2629 21.4965 28.5048L22.1922 28.5821ZM22.2349 28.0172C22.2349 27.1876 21.9511 26.4986 21.3649 25.9916L20.907 26.521C21.3193 26.8776 21.5349 27.3626 21.5349 28.0172H22.2349ZM21.3685 25.9947C20.8061 25.4949 20.0834 25.2586 19.2334 25.2586V25.9586C19.9487 25.9586 20.4943 26.1542 20.9034 26.5179L21.3685 25.9947ZM19.2334 25.2586C18.3289 25.2586 17.5104 25.55 16.7891 26.1242L17.225 26.6718C17.826 26.1935 18.4918 25.9586 19.2334 25.9586V25.2586ZM16.7891 26.1242C16.063 26.702 15.573 27.4845 15.3129 28.4526L15.9889 28.6342C16.2146 27.7943 16.6287 27.1465 17.225 26.6718L16.7891 26.1242ZM15.6509 28.8934H21.8444V28.1934H15.6509V28.8934ZM24.5806 29.3733L24.9242 29.4398L24.925 29.4355L24.5806 29.3733ZM25.795 26.398L25.5107 26.1937L25.5087 26.1967L25.795 26.398ZM28.0618 24.3942L28.2258 24.7035L28.2294 24.7015L28.0618 24.3942ZM32.9397 24.1514L32.7831 24.4645L32.7884 24.467L32.9397 24.1514ZM34.4172 25.4062L34.1226 25.5951L34.606 26.3493L34.7619 25.4671L34.4172 25.4062ZM35.3685 20.0224V19.6724H35.0749L35.0238 19.9615L35.3685 20.0224ZM37.6961 20.0224L38.0407 20.0834L38.1135 19.6724H37.6961V20.0224ZM35.0446 35V35.35H35.3381L35.3893 35.061L35.0446 35ZM32.717 35L32.3726 34.9378L32.2981 35.35H32.717V35ZM33.0206 33.3201L33.3651 33.3823L33.5892 32.1421L32.7576 33.0891L33.0206 33.3201ZM31.199 34.6762L31.3484 34.9927L31.3509 34.9915L31.199 34.6762ZM26.5641 34.6154L26.3904 34.9193L26.5641 34.6154ZM25.0056 33.0165L24.6949 33.1778L24.6988 33.1849L25.0056 33.0165ZM33.7088 29.4138L33.3661 29.3416L33.3641 29.3533L33.7088 29.4138ZM32.9802 26.4587L32.7326 26.7063L32.7391 26.7125L32.9802 26.4587ZM29.256 26.1146L29.4126 26.4277L29.4184 26.4247L29.256 26.1146ZM27.7785 27.3898L28.0577 27.6009L28.0601 27.5976L27.7785 27.3898ZM26.9486 29.3733L27.2913 29.4454L27.2934 29.4338L26.9486 29.3733ZM27.657 32.389L27.4064 32.6335L27.4127 32.6396L27.657 32.389ZM32.879 31.4378L33.1606 31.6456L33.1629 31.6424L32.879 31.4378ZM24.925 29.4355C25.1191 28.3616 25.5056 27.4181 26.0813 26.5993L25.5087 26.1967C24.87 27.105 24.4469 28.145 24.2361 29.311L24.925 29.4355ZM26.0792 26.6023C26.6702 25.78 27.3855 25.1491 28.2258 24.7035L27.8979 24.085C26.9571 24.5839 26.1611 25.2889 25.5108 26.1937L26.0792 26.6023ZM28.2294 24.7015C29.0702 24.2429 29.9505 24.0156 30.8752 24.0156V23.3156C29.8298 23.3156 28.8346 23.574 27.8942 24.087L28.2294 24.7015ZM30.8752 24.0156C31.5499 24.0156 32.1844 24.165 32.7832 24.4644L33.0962 23.8383C32.3996 23.49 31.6578 23.3156 30.8752 23.3156V24.0156ZM32.7884 24.467C33.3864 24.7535 33.8253 25.1314 34.1226 25.5951L34.7119 25.2174C34.3345 24.6286 33.7883 24.1699 33.0909 23.8357L32.7884 24.467ZM34.7619 25.4671L35.7132 20.0833L35.0238 19.9615L34.0725 25.3453L34.7619 25.4671ZM35.3685 20.3724H37.6961V19.6724H35.3685V20.3724ZM37.3514 19.9614L34.7 34.939L35.3893 35.061L38.0407 20.0834L37.3514 19.9614ZM35.0446 34.65H32.717V35.35H35.0446V34.65ZM33.0615 35.0622L33.3651 33.3823L32.6762 33.2578L32.3726 34.9378L33.0615 35.0622ZM32.7576 33.0891C32.3058 33.6037 31.7377 34.0284 31.0472 34.3608L31.3509 34.9915C32.1177 34.6223 32.764 34.1429 33.2837 33.551L32.7576 33.0891ZM31.0497 34.3596C30.3855 34.6729 29.6477 34.8322 28.831 34.8322V35.5322C29.7413 35.5322 30.5823 35.354 31.3484 34.9927L31.0497 34.3596ZM28.831 34.8322C28.0346 34.8322 27.3401 34.6557 26.7377 34.3116L26.3904 34.9193C27.1104 35.3308 27.9272 35.5322 28.831 35.5322V34.8322ZM26.7377 34.3116C26.1344 33.9668 25.6602 33.4815 25.3124 32.848L24.6988 33.1849C25.1067 33.9278 25.6715 34.5085 26.3904 34.9193L26.7377 34.3116ZM25.3162 32.8552C24.9813 32.2101 24.8091 31.4639 24.8091 30.6079H24.1091C24.1091 31.56 24.3013 32.4196 24.695 33.1778L25.3162 32.8552ZM24.8091 30.6079C24.8091 30.2266 24.8472 29.8373 24.9242 29.4398L24.2369 29.3068C24.152 29.7458 24.1091 30.1797 24.1091 30.6079H24.8091ZM34.0513 29.4859C34.1109 29.2029 34.1398 28.9019 34.1398 28.5839H33.4398C33.4398 28.8597 33.4147 29.1119 33.3663 29.3417L34.0513 29.4859ZM34.1398 28.5839C34.1398 27.606 33.8451 26.7976 33.2212 26.205L32.7391 26.7125C33.1947 27.1453 33.4398 27.7537 33.4398 28.5839H34.1398ZM33.2277 26.2112C32.6309 25.6145 31.8784 25.3194 30.9966 25.3194V26.0194C31.7071 26.0194 32.277 26.2505 32.7327 26.7062L33.2277 26.2112ZM30.9966 25.3194C30.342 25.3194 29.7064 25.4836 29.0936 25.8046L29.4184 26.4247C29.939 26.152 30.4638 26.0194 30.9966 26.0194V25.3194ZM29.0995 25.8016C28.478 26.1123 27.9443 26.5758 27.4969 27.1819L28.0601 27.5976C28.4493 27.0703 28.9005 26.6837 29.4125 26.4277L29.0995 25.8016ZM27.4993 27.1787C27.0435 27.7815 26.7472 28.4959 26.6039 29.3128L27.2934 29.4338C27.4199 28.7124 27.6769 28.1045 28.0577 27.6008L27.4993 27.1787ZM26.6062 29.3012C26.5466 29.5841 26.5177 29.8852 26.5177 30.2031H27.2177C27.2177 29.9274 27.2428 29.6752 27.2911 29.4454L26.6062 29.3012ZM26.5177 30.2031C26.5177 31.1909 26.8032 32.0146 27.4064 32.6334L27.9076 32.1447C27.4585 31.684 27.2177 31.0504 27.2177 30.2031H26.5177ZM27.4127 32.6396C28.0218 33.2335 28.7791 33.5284 29.6608 33.5284V32.8284C28.9503 32.8284 28.3718 32.5971 27.9014 32.1384L27.4127 32.6396ZM29.6608 33.5284C30.3154 33.5284 30.951 33.3642 31.5638 33.0432L31.239 32.4231C30.7185 32.6958 30.1936 32.8284 29.6608 32.8284V33.5284ZM31.5638 33.0432C32.1821 32.7193 32.714 32.2506 33.1606 31.6456L32.5974 31.2299C32.2073 31.7583 31.7542 32.1532 31.239 32.4231L31.5638 33.0432ZM33.1629 31.6424C33.6148 31.0155 33.9103 30.2906 34.0535 29.4742L33.3641 29.3533C33.2374 30.0752 32.9797 30.6995 32.5951 31.2331L33.1629 31.6424ZM37.2859 29.3733L37.6296 29.4398L37.6303 29.4355L37.2859 29.3733ZM38.5003 26.398L38.2161 26.1937L38.214 26.1967L38.5003 26.398ZM40.7672 24.3942L40.9312 24.7035L40.9348 24.7015L40.7672 24.3942ZM45.645 24.1514L45.4885 24.4645L45.4938 24.467L45.645 24.1514ZM47.1225 25.4062L46.8279 25.5951L47.3113 26.3493L47.4672 25.4671L47.1225 25.4062ZM48.0738 20.0224V19.6724H47.7803L47.7292 19.9615L48.0738 20.0224ZM50.4014 20.0224L50.7461 20.0834L50.8188 19.6724H50.4014V20.0224ZM47.75 35V35.35H48.0435L48.0946 35.061L47.75 35ZM45.4224 35L45.078 34.9378L45.0035 35.35H45.4224V35ZM45.726 33.3201L46.0704 33.3823L46.2945 32.1421L45.463 33.0891L45.726 33.3201ZM43.9044 34.6762L44.0537 34.9927L44.0562 34.9915L43.9044 34.6762ZM39.2694 34.6154L39.0958 34.9193L39.2694 34.6154ZM37.7109 33.0165L37.4002 33.1778L37.4041 33.1849L37.7109 33.0165ZM46.4141 29.4138L46.0715 29.3416L46.0694 29.3533L46.4141 29.4138ZM45.6855 26.4587L45.4379 26.7063L45.4444 26.7125L45.6855 26.4587ZM41.9613 26.1146L42.1179 26.4277L42.1237 26.4247L41.9613 26.1146ZM40.4838 27.3898L40.763 27.6009L40.7654 27.5976L40.4838 27.3898ZM39.654 29.3733L39.9967 29.4454L39.9987 29.4338L39.654 29.3733ZM40.3624 32.389L40.1117 32.6335L40.1181 32.6396L40.3624 32.389ZM45.5843 31.4378L45.8659 31.6456L45.8682 31.6424L45.5843 31.4378ZM37.6303 29.4355C37.8244 28.3616 38.2109 27.4181 38.7866 26.5993L38.214 26.1967C37.5753 27.105 37.1522 28.145 36.9415 29.311L37.6303 29.4355ZM38.7845 26.6023C39.3755 25.78 40.0908 25.1491 40.9312 24.7035L40.6032 24.085C39.6624 24.5839 38.8665 25.2889 38.2161 26.1937L38.7845 26.6023ZM40.9348 24.7015C41.7755 24.2429 42.6559 24.0156 43.5805 24.0156V23.3156C42.5352 23.3156 41.54 23.574 40.5996 24.087L40.9348 24.7015ZM43.5805 24.0156C44.2552 24.0156 44.8897 24.165 45.4885 24.4644L45.8016 23.8383C45.105 23.49 44.3632 23.3156 43.5805 23.3156V24.0156ZM45.4938 24.467C46.0917 24.7535 46.5306 25.1314 46.8279 25.5951L47.4172 25.2174C47.0398 24.6286 46.4937 24.1699 45.7963 23.8357L45.4938 24.467ZM47.4672 25.4671L48.4185 20.0833L47.7292 19.9615L46.7779 25.3453L47.4672 25.4671ZM48.0738 20.3724H50.4014V19.6724H48.0738V20.3724ZM50.0568 19.9614L47.4053 34.939L48.0946 35.061L50.7461 20.0834L50.0568 19.9614ZM47.75 34.65H45.4224V35.35H47.75V34.65ZM45.7668 35.0622L46.0704 33.3823L45.3816 33.2578L45.078 34.9378L45.7668 35.0622ZM45.463 33.0891C45.0112 33.6037 44.443 34.0284 43.7526 34.3608L44.0562 34.9915C44.823 34.6223 45.4693 34.1429 45.989 33.551L45.463 33.0891ZM43.7551 34.3596C43.0908 34.6729 42.3531 34.8322 41.5363 34.8322V35.5322C42.4467 35.5322 43.2877 35.354 44.0537 34.9927L43.7551 34.3596ZM41.5363 34.8322C40.7399 34.8322 40.0454 34.6557 39.4431 34.3116L39.0958 34.9193C39.8158 35.3308 40.6326 35.5322 41.5363 35.5322V34.8322ZM39.4431 34.3116C38.8397 33.9668 38.3655 33.4815 38.0177 32.848L37.4041 33.1849C37.812 33.9278 38.3768 34.5085 39.0958 34.9193L39.4431 34.3116ZM38.0216 32.8552C37.6866 32.2101 37.5145 31.4639 37.5145 30.6079H36.8145C36.8145 31.56 37.0066 32.4196 37.4003 33.1778L38.0216 32.8552ZM37.5145 30.6079C37.5145 30.2266 37.5526 29.8373 37.6295 29.4398L36.9423 29.3068C36.8573 29.7458 36.8145 30.1797 36.8145 30.6079H37.5145ZM46.7566 29.4859C46.8162 29.2029 46.8451 28.9019 46.8451 28.5839H46.1451C46.1451 28.8597 46.12 29.1119 46.0717 29.3417L46.7566 29.4859ZM46.8451 28.5839C46.8451 27.606 46.5504 26.7976 45.9266 26.205L45.4444 26.7125C45.9001 27.1453 46.1451 27.7537 46.1451 28.5839H46.8451ZM45.933 26.2112C45.3362 25.6145 44.5838 25.3194 43.702 25.3194V26.0194C44.4124 26.0194 44.9823 26.2505 45.438 26.7062L45.933 26.2112ZM43.702 25.3194C43.0474 25.3194 42.4118 25.4836 41.7989 25.8046L42.1237 26.4247C42.6443 26.152 43.1692 26.0194 43.702 26.0194V25.3194ZM41.8048 25.8016C41.1834 26.1123 40.6496 26.5758 40.2022 27.1819L40.7654 27.5976C41.1546 27.0703 41.6059 26.6837 42.1179 26.4277L41.8048 25.8016ZM40.2046 27.1787C39.7488 27.7815 39.4526 28.4959 39.3093 29.3128L39.9987 29.4338C40.1253 28.7124 40.3822 28.1045 40.763 27.6008L40.2046 27.1787ZM39.3115 29.3012C39.2519 29.5841 39.223 29.8852 39.223 30.2031H39.923C39.923 29.9274 39.9481 29.6752 39.9965 29.4454L39.3115 29.3012ZM39.223 30.2031C39.223 31.1909 39.5085 32.0146 40.1118 32.6334L40.613 32.1447C40.1638 31.684 39.923 31.0504 39.923 30.2031H39.223ZM40.1181 32.6396C40.7271 33.2335 41.4844 33.5284 42.3661 33.5284V32.8284C41.6557 32.8284 41.0771 32.5971 40.6067 32.1384L40.1181 32.6396ZM42.3661 33.5284C43.0208 33.5284 43.6563 33.3642 44.2692 33.0432L43.9444 32.4231C43.4238 32.6958 42.899 32.8284 42.3661 32.8284V33.5284ZM44.2692 33.0432C44.8875 32.7193 45.4194 32.2506 45.8659 31.6456L45.3027 31.2299C44.9127 31.7583 44.4596 32.1532 43.9444 32.4231L44.2692 33.0432ZM45.8682 31.6424C46.3202 31.0155 46.6157 30.2906 46.7589 29.4742L46.0694 29.3533C45.9428 30.0752 45.685 30.6995 45.3004 31.2331L45.8682 31.6424Z" fill="black" mask="url(#path-3-outside-2_37_86)"/>
<path d="M7.62337 20.6266L9.83156 20.6266L9.1932 24.2469L7.03896 23.867L7.62337 20.6266Z" fill="#FF0000"/>
</svg>
